<?xml version="1.0" encoding="UTF-8" standalone="no"?>
<!DOCTYPE svg PUBLIC "-//W3C//DTD SVG 1.0//EN" "http://www.w3.org/TR/2001/REC-SVG-20010904/DTD/svg10.dtd">
<!-- Создано Microsoft Visio 11.0, Экспорт SVG, версия 1.0 arrow-left.svg Страница-1 -->
<svg xmlns="http://www.w3.org/2000/svg" xmlns:v="http://schemas.microsoft.com/visio/2003/SVGExtensions/" width="0.197917in"
		height="0.177072in" viewBox="0 0 14.25 12.7492" xml:space="preserve" color-interpolation-filters="sRGB" class="st2">
	<v:documentProperties v:langID="1033" v:metric="true" v:viewMarkup="false"/>

	<style type="text/css">
	<![CDATA[
		.st1 {fill:#ffffff;stroke:#684f00;stroke-linecap:butt;stroke-width:0.75}
		.st2 {fill:none;fill-rule:evenodd;font-size:12;overflow:visible;stroke-linecap:square;stroke-miterlimit:3}
	]]>
	</style>

	<g v:mID="0" v:index="1" v:groupContext="foregroundPage">
		<title>Страница-1</title>
		<v:pageProperties v:drawingScale="1" v:pageScale="1" v:drawingUnits="19" v:shadowOffsetX="9" v:shadowOffsetY="-9"/>
		<g id="shape1-1" v:mID="1" v:groupContext="shape" transform="translate(0.75,-0.75)">
			<title>Лист.1</title>
			<path d="M2.86 6.38 L12 6.38 C12.41 6.38 12.75 6.71 12.75 7.12 C12.75 7.54 12.41 7.87 12 7.87 L2.86 7.87 L6.5 11.48 a0.7395
						 0.7395 0 0 1 -1.77636E-015 1.05 a0.7515 0.7515 0 0 1 -1.0575 3.55271E-015 L0 7.12 L5.44 1.72 a0.7515 0.7515
						 0 0 1 1.0575 3.55271E-015 a0.7395 0.7395 0 0 1 7.10543E-015 1.05075 L2.86 6.38 L2.86 6.38 Z" class="st1"/>
		</g>
	</g>
</svg>
